<svg xmlns="http://www.w3.org/2000/svg" viewBox="0 0 521.06 115.89"><defs><style>.cls-1{fill:#fff;}.cls-2{fill:#371a45;}.cls-3{opacity:0.35;}.cls-4{opacity:0.7;}.cls-5{fill:#111a28;}</style></defs><g id="Layer_2" data-name="Layer 2"><g id="Layer_1-2" data-name="Layer 1"><path class="cls-1" d="M123.45,72h0a1.14,1.14,0,0,1-1.21-1.06l-2.09-32.7A1.13,1.13,0,0,1,121.21,37h0a11.93,11.93,0,0,1,12.67,11.15l.71,11.15A11.94,11.94,0,0,1,123.45,72Z"/><path class="cls-2" d="M123.37,72.21A1.37,1.37,0,0,1,122,70.93l-2.09-32.7a1.37,1.37,0,0,1,1.28-1.45,12.18,12.18,0,0,1,12.91,11.36l.71,11.15A12.16,12.16,0,0,1,123.46,72.2h-.09Zm.08-.23ZM122,37.21c-.26,0-.51,0-.77,0a.88.88,0,0,0-.62.3,1,1,0,0,0-.23.66l2.09,32.7a.91.91,0,0,0,1,.85,11.72,11.72,0,0,0,10.94-12.43l-.72-11.15a11.71,11.71,0,0,0-11.66-11Z"/><g class="cls-3"><path class="cls-2" d="M134.26,54.08l.33,5.23A11.94,11.94,0,0,1,123.44,72a1.14,1.14,0,0,1-1.2-1.06l-.56-8.7a1.12,1.12,0,0,0,1.07.61l.78,0A11.92,11.92,0,0,0,134.26,54.08Z"/></g><path class="cls-2" d="M123.37,74.09a3.25,3.25,0,0,1-3.24-3L118,38.35a3.26,3.26,0,0,1,3-3.45A14,14,0,0,1,136,48l.72,11.15a14,14,0,0,1-13.12,14.91h-.21Zm.08-2.11ZM122.32,39.1l2,30.66a9.84,9.84,0,0,0,8.21-10.32l-.71-11.15a9.83,9.83,0,0,0-9.46-9.19Z"/><path class="cls-1" d="M13.28,43.91h0A1.13,1.13,0,0,1,14.49,45l2.09,32.7a1.14,1.14,0,0,1-1.06,1.21h0A11.93,11.93,0,0,1,2.85,67.73L2.13,56.58A11.93,11.93,0,0,1,13.28,43.91Z"/><path class="cls-2" d="M14.74,79.13A12.15,12.15,0,0,1,2.62,67.74L1.91,56.59A12.16,12.16,0,0,1,13.27,43.68h0A1.37,1.37,0,0,1,14.72,45l2.09,32.69a1.36,1.36,0,0,1-.34,1,1.33,1.33,0,0,1-.94.46C15.27,79.12,15,79.13,14.74,79.13Zm-1.44-35A11.7,11.7,0,0,0,2.36,56.56l.71,11.15A11.7,11.7,0,0,0,15.5,78.65a.85.85,0,0,0,.63-.31.87.87,0,0,0,.22-.66L14.26,45a.91.91,0,0,0-1-.86Z"/><g class="cls-3"><path class="cls-2" d="M16,68.6l.58,9.07a1.14,1.14,0,0,1-1.06,1.21A11.92,11.92,0,0,1,2.85,67.73L2.55,63a11.91,11.91,0,0,0,11.29,6.3l1.2-.07A1.16,1.16,0,0,0,16,68.6Z"/></g><path class="cls-2" d="M14.75,81a14.07,14.07,0,0,1-14-13.15L0,56.71A14,14,0,0,1,13.15,41.8h0a3.25,3.25,0,0,1,3.44,3l2.09,32.69a3.23,3.23,0,0,1-.8,2.36A3.19,3.19,0,0,1,15.65,81Q15.2,81,14.75,81Zm-2.3-34.89A9.84,9.84,0,0,0,4.24,56.44L5,67.59a9.85,9.85,0,0,0,9.46,9.2Z"/><circle class="cls-1" cx="68.37" cy="57.94" r="55.83"/><path class="cls-2" d="M68.38,114H68A56.06,56.06,0,0,1,68.36,1.88h.41A56.06,56.06,0,0,1,68.38,114Zm0-111.66A55.6,55.6,0,0,0,28.77,97,55.61,55.61,0,1,0,108,18.9,55.24,55.24,0,0,0,68.77,2.34Z"/><g class="cls-3"><path class="cls-2" d="M123.72,50.61a54.86,54.86,0,0,1,.48,7.73,55.83,55.83,0,1,1-111.66-.8c0-.88,0-1.77.08-2.64a55.83,55.83,0,0,0,111.1-4.29Z"/></g><path class="cls-2" d="M68.38,115.89H68a57.94,57.94,0,0,1-40.27-99.2,57.95,57.95,0,0,1,81.36,82.53A57.59,57.59,0,0,1,68.38,115.89Zm0-111.67A53.73,53.73,0,0,0,30.11,95.66a53.72,53.72,0,0,0,76.52-75.43,53.37,53.37,0,0,0-37.88-16Z"/><path class="cls-2" d="M124,59.77a50.11,50.11,0,0,1-9.37,29.54c-4.5,6.33-23.11,17.49-46.19,17.88-21.4.36-41-10.89-45.56-17.15A50.11,50.11,0,0,1,13,60.66c-.23-28.91,24.52-41.1,55.16-41.34S123.78,30.86,124,59.77Z"/><path class="cls-2" d="M67.42,108.46c-21.68,0-40.81-11.24-45.54-17.67A51.22,51.22,0,0,1,11.79,60.67c-.12-14.12,5.46-25,16.56-32.48,9.7-6.5,23.48-10,39.84-10.13s30.2,3.15,40,9.5c11.22,7.25,17,18.09,17.07,32.2h0A51.23,51.23,0,0,1,115.66,90c-4.42,6.22-22.79,18-47.19,18.41ZM69,20.57h-.83C51.91,20.71,14,24.87,14.3,60.65A48.79,48.79,0,0,0,23.9,89.3c4.34,5.9,23,16.64,43.54,16.64h1c23.21-.39,41.15-11.68,45.18-17.35a48.76,48.76,0,0,0,9.15-28.8h0C122.48,24.6,85.76,20.57,69,20.57Z"/><g class="cls-4"><ellipse class="cls-1" cx="105.95" cy="55.99" rx="9.88" ry="7.16" transform="translate(32.72 150.85) rotate(-80.19)"/></g><g class="cls-4"><ellipse class="cls-1" cx="97.33" cy="75.63" rx="4.54" ry="3.89" transform="translate(-4.38 145.26) rotate(-72.24)"/></g><g class="cls-3"><path class="cls-5" d="M113,32.89c6.83,6.42,10.91,15.27,11,26.88a50.11,50.11,0,0,1-9.37,29.54c-4.5,6.33-23.11,17.49-46.19,17.88a68.78,68.78,0,0,1-22.92-3.72c28.36-1.09,51-14.79,56.6-22.63A63.62,63.62,0,0,0,114,43.35,56.74,56.74,0,0,0,113,32.89Z"/></g><path class="cls-2" d="M18.69,37.27l-3.31-2.62,1.56,1.25-1.66-1.11c9.8-14.67,29-23.2,52.55-23.39s42.69,7.75,52.88,21.78a2.11,2.11,0,0,1-3,2.88,2,2,0,0,1-.34-.37C108,22.76,89.91,15.43,67.86,15.62s-40.06,8-49.07,21.51ZM17,36Z"/><g class="cls-4"><path class="cls-1" d="M25.64,77.76s-9.18-28.45,6.1-39.94,37.4-11.62,36.89-10.2c0,0-24.43,6.13-33.86,25.56C27.5,68.16,25.64,77.76,25.64,77.76Z"/></g><path class="cls-2" d="M186.07,36.53a6.33,6.33,0,0,1,2.77.53,4.59,4.59,0,0,1,1.78,1.52l25.47,36.33a2.51,2.51,0,0,1,.41,1.35,2.24,2.24,0,0,1-.38,1.22,3.34,3.34,0,0,1-1,1,5.24,5.24,0,0,1-1.37.65,5.39,5.39,0,0,1-1.52.23,3.88,3.88,0,0,1-1.46-.26,2.6,2.6,0,0,1-1.11-.91l-6.9-10H170.3l-6.49,10a2.22,2.22,0,0,1-1.08.91,4,4,0,0,1-1.43.26,5.15,5.15,0,0,1-1.46-.23,4.85,4.85,0,0,1-1.37-.67,4.08,4.08,0,0,1-1-1,2.12,2.12,0,0,1-.38-1.25,2.62,2.62,0,0,1,.4-1.29l23.95-36.33a4.2,4.2,0,0,1,1.76-1.52A6.7,6.7,0,0,1,186.07,36.53Zm-11.74,25.3h24.12L186.07,43.66Z"/><path class="cls-2" d="M220,39.4c0-1.79.91-2.69,2.74-2.69h32.83a34.56,34.56,0,0,1,7.15.67,19.44,19.44,0,0,1,5.41,1.9,9.64,9.64,0,0,1,3.41,3,6.76,6.76,0,0,1,1.2,3.91v7.36a6.8,6.8,0,0,1-1.2,3.92,9.74,9.74,0,0,1-3.41,3,19.45,19.45,0,0,1-5.41,1.89,34.52,34.52,0,0,1-7.15.68h-6.81c-1.26,0-2.38,0-3.35,0s-1.85,0-2.63-.09l-2.28-.12v.12c.62.23,1.29.48,2,.73s1.61.57,2.66,1,2.33.88,3.83,1.46l5.58,2.22,14.07,5.67a2.67,2.67,0,0,1,1.87,2.63,2.27,2.27,0,0,1-1,2.16,6,6,0,0,1-2.95.58l-1,0c-.41,0-.83-.05-1.26-.11a12.55,12.55,0,0,1-1.25-.24,3.27,3.27,0,0,1-1.08-.44L227.72,63.7V76.55a2.28,2.28,0,0,1-1,2.22,6.4,6.4,0,0,1-2.92.52,6.26,6.26,0,0,1-2.86-.52,2.28,2.28,0,0,1-1-2.22ZM227.72,43V56.8h27.1a33.63,33.63,0,0,0,4.93-.29,12.52,12.52,0,0,0,3.13-.79,3.7,3.7,0,0,0,1.63-1.16,2.51,2.51,0,0,0,.47-1.49V46.76a2.51,2.51,0,0,0-.47-1.46,3.52,3.52,0,0,0-1.63-1.2,13.46,13.46,0,0,0-3.13-.79,35.09,35.09,0,0,0-4.93-.29Z"/><path class="cls-2" d="M301.78,43V76.55a2.28,2.28,0,0,1-1,2.22,6.46,6.46,0,0,1-2.92.52,6.24,6.24,0,0,1-2.86-.52,2.26,2.26,0,0,1-1-2.22V43H276.43a1.91,1.91,0,0,1-1.84-.79,5,5,0,0,1-.44-2.37,5,5,0,0,1,.44-2.36,1.91,1.91,0,0,1,1.84-.79h43a1.9,1.9,0,0,1,1.84.79,5,5,0,0,1,.44,2.36,5,5,0,0,1-.44,2.37,1.9,1.9,0,0,1-1.84.79Z"/><path class="cls-2" d="M341.68,60.72q-17.3,0-17.29-10.87V47.57q0-10.86,17.29-10.86h5.84a1.93,1.93,0,0,1,1.84.79,5,5,0,0,1,.44,2.36,5,5,0,0,1-.44,2.37,1.93,1.93,0,0,1-1.84.79h-6q-5.14,0-7.27,1.31a3.8,3.8,0,0,0-2.13,3.24v2.28a3.84,3.84,0,0,0,2.13,3.22q2.13,1.34,7.27,1.34h13.79q17.28,0,17.29,10.86v2.92q0,10.88-17.29,10.87H326.66a1.93,1.93,0,0,1-1.84-.79,6.72,6.72,0,0,1,0-4.73,1.93,1.93,0,0,1,1.84-.79h28.8q5.15,0,7.27-1.31a3.82,3.82,0,0,0,2.14-3.25V65.27a3.85,3.85,0,0,0-2.14-3.21q-2.13-1.34-7.27-1.34Z"/><path class="cls-2" d="M389.11,43V76.55a2.28,2.28,0,0,1-1,2.22,6.4,6.4,0,0,1-2.92.52,6.26,6.26,0,0,1-2.86-.52,2.28,2.28,0,0,1-1-2.22V43H363.76a1.9,1.9,0,0,1-1.84-.79,4.92,4.92,0,0,1-.44-2.37,4.87,4.87,0,0,1,.44-2.36,1.9,1.9,0,0,1,1.84-.79h43a1.91,1.91,0,0,1,1.84.79,5,5,0,0,1,.43,2.36,5.06,5.06,0,0,1-.43,2.37,1.91,1.91,0,0,1-1.84.79Z"/><path class="cls-2" d="M412.47,39.4c0-1.79.92-2.69,2.75-2.69H448a34.66,34.66,0,0,1,7.16.67,19.48,19.48,0,0,1,5.4,1.9,9.77,9.77,0,0,1,3.42,3,6.76,6.76,0,0,1,1.2,3.91v7.36a6.8,6.8,0,0,1-1.2,3.92,9.87,9.87,0,0,1-3.42,3,19.49,19.49,0,0,1-5.4,1.89A34.62,34.62,0,0,1,448,63h-6.8q-1.9,0-3.36,0c-1,0-1.85,0-2.63-.09L433,62.76v.12c.63.23,1.3.48,2,.73s1.61.57,2.66,1,2.32.88,3.82,1.46l5.58,2.22,14.08,5.67A2.68,2.68,0,0,1,463,76.55a2.27,2.27,0,0,1-1,2.16,6.07,6.07,0,0,1-3,.58l-1,0c-.4,0-.82-.05-1.25-.11a12.75,12.75,0,0,1-1.26-.24,3.27,3.27,0,0,1-1.08-.44L420.24,63.7V76.55a2.28,2.28,0,0,1-1,2.22,6.46,6.46,0,0,1-2.92.52,6.31,6.31,0,0,1-2.87-.52,2.28,2.28,0,0,1-1-2.22ZM420.24,43V56.8h27.1a33.78,33.78,0,0,0,4.94-.29,12.55,12.55,0,0,0,3.12-.79A3.74,3.74,0,0,0,457,54.56a2.58,2.58,0,0,0,.47-1.49V46.76A2.58,2.58,0,0,0,457,45.3a3.56,3.56,0,0,0-1.64-1.2,13.5,13.5,0,0,0-3.12-.79,35.24,35.24,0,0,0-4.94-.29Z"/><path class="cls-2" d="M486.77,79.06q-17.29,0-17.29-10.87V47.57q0-10.86,17.29-10.86h17q17.29,0,17.29,10.86V68.19q0,10.88-17.29,10.87Zm16.76-6.31q5.14,0,7.48-1.34c1.56-.9,2.34-2,2.34-3.22V47.57q0-1.92-2.34-3.24T503.53,43H487c-3.42,0-5.92.44-7.47,1.31s-2.34,2-2.34,3.24V68.19c0,1.25.78,2.32,2.34,3.22s4.05,1.34,7.47,1.34Z"/></g></g></svg>