<svg xmlns="http://www.w3.org/2000/svg" viewBox="0 0 177.31 20.86"><defs><style>.cls-1{fill:#371a45;}</style></defs><g id="Layer_2" data-name="Layer 2"><g id="Layer_1-2" data-name="Layer 1"><path class="cls-1" d="M14.11,0a3.17,3.17,0,0,1,1.36.26,2.12,2.12,0,0,1,.86.74L28.74,18.7a1.18,1.18,0,0,1,.2.65,1,1,0,0,1-.19.6,1.57,1.57,0,0,1-.48.48,2.42,2.42,0,0,1-.67.31,2.34,2.34,0,0,1-.74.12,1.8,1.8,0,0,1-.71-.13,1.26,1.26,0,0,1-.54-.44L22.25,15.4H6.43L3.27,20.29a1.11,1.11,0,0,1-.52.44,1.85,1.85,0,0,1-.7.13,2.25,2.25,0,0,1-.71-.12,2.18,2.18,0,0,1-.67-.32,2.07,2.07,0,0,1-.49-.49A1.07,1.07,0,0,1,0,19.32a1.25,1.25,0,0,1,.2-.62L11.87,1a1.92,1.92,0,0,1,.85-.74A3.25,3.25,0,0,1,14.11,0ZM8.39,12.32H20.15l-6-8.85Z"/><path class="cls-1" d="M30.62,1.39c0-.87.44-1.3,1.34-1.3H48a17.48,17.48,0,0,1,3.48.32,9.59,9.59,0,0,1,2.64.93,4.75,4.75,0,0,1,1.66,1.45,3.29,3.29,0,0,1,.58,1.91V8.28a3.31,3.31,0,0,1-.58,1.91,4.75,4.75,0,0,1-1.66,1.45,9.28,9.28,0,0,1-2.64.92,16.73,16.73,0,0,1-3.48.33H43l-1.28-.05-1.11-.05v.05l1,.36,1.29.47,1.87.71,2.71,1.08,6.86,2.76a1.3,1.3,0,0,1,.91,1.28,1.1,1.1,0,0,1-.5,1.06,3,3,0,0,1-1.43.28h-.5l-.61-.06a6,6,0,0,1-.61-.12,1.47,1.47,0,0,1-.53-.21L34.4,13.23v6.26a1.11,1.11,0,0,1-.48,1.08,3.12,3.12,0,0,1-1.42.26,3.06,3.06,0,0,1-1.4-.26,1.11,1.11,0,0,1-.48-1.08ZM34.4,3.16V9.87H47.61A16,16,0,0,0,50,9.73a6.19,6.19,0,0,0,1.52-.38,1.78,1.78,0,0,0,.8-.57,1.26,1.26,0,0,0,.23-.73V5a1.27,1.27,0,0,0-.23-.71,1.71,1.71,0,0,0-.8-.58A6.15,6.15,0,0,0,50,3.3a17.5,17.5,0,0,0-2.4-.14Z"/><path class="cls-1" d="M70.48,3.16V19.49A1.11,1.11,0,0,1,70,20.57a3.12,3.12,0,0,1-1.42.26,3.09,3.09,0,0,1-1.4-.26,1.11,1.11,0,0,1-.48-1.08V3.16H58.14a.93.93,0,0,1-.9-.39A2.45,2.45,0,0,1,57,1.62,2.48,2.48,0,0,1,57.24.47c.14-.26.44-.38.9-.38H79.08c.45,0,.75.12.89.38a2.34,2.34,0,0,1,.22,1.15A2.32,2.32,0,0,1,80,2.77a.92.92,0,0,1-.89.39Z"/><path class="cls-1" d="M89.92,11.78q-8.43,0-8.42-5.29V5.38Q81.5.08,89.92.09h2.85c.45,0,.75.12.89.38a2.46,2.46,0,0,1,.22,1.15,2.44,2.44,0,0,1-.22,1.15.92.92,0,0,1-.89.39H89.83a7.12,7.12,0,0,0-3.54.64,1.86,1.86,0,0,0-1,1.58V6.49a1.85,1.85,0,0,0,1,1.56,7,7,0,0,0,3.54.66h6.72Q105,8.71,105,14v1.42q0,5.3-8.42,5.3H82.61a.93.93,0,0,1-.9-.39,2.45,2.45,0,0,1-.21-1.15A2.45,2.45,0,0,1,81.71,18a.93.93,0,0,1,.9-.39h14a7.12,7.12,0,0,0,3.54-.64,1.84,1.84,0,0,0,1-1.58V14a1.85,1.85,0,0,0-1-1.56,7,7,0,0,0-3.54-.66Z"/><path class="cls-1" d="M113,3.16V19.49a1.11,1.11,0,0,1-.49,1.08,3.09,3.09,0,0,1-1.42.26,3,3,0,0,1-1.39-.26,1.1,1.1,0,0,1-.49-1.08V3.16h-8.56a.93.93,0,0,1-.9-.39,2.45,2.45,0,0,1-.21-1.15A2.48,2.48,0,0,1,99.78.47c.14-.26.44-.38.9-.38h20.94a.94.94,0,0,1,.9.38,2.48,2.48,0,0,1,.21,1.15,2.45,2.45,0,0,1-.21,1.15.94.94,0,0,1-.9.39Z"/><path class="cls-1" d="M124.41,1.39c0-.87.44-1.3,1.34-1.3h16a17.48,17.48,0,0,1,3.48.32,9.47,9.47,0,0,1,2.64.93,4.75,4.75,0,0,1,1.66,1.45,3.29,3.29,0,0,1,.58,1.91V8.28a3.31,3.31,0,0,1-.58,1.91,4.75,4.75,0,0,1-1.66,1.45,9.17,9.17,0,0,1-2.64.92,16.73,16.73,0,0,1-3.48.33h-5l-1.28-.05-1.11-.05v.05l1,.36,1.29.47,1.87.71,2.71,1.08,6.86,2.76a1.3,1.3,0,0,1,.91,1.28,1.11,1.11,0,0,1-.49,1.06,3.11,3.11,0,0,1-1.44.28h-.5l-.61-.06a6,6,0,0,1-.61-.12,1.47,1.47,0,0,1-.53-.21l-16.65-7.2v6.26a1.11,1.11,0,0,1-.48,1.08,3.12,3.12,0,0,1-1.42.26,3.09,3.09,0,0,1-1.4-.26,1.11,1.11,0,0,1-.48-1.08Zm3.78,1.77V9.87H141.4a16,16,0,0,0,2.4-.14,6.19,6.19,0,0,0,1.52-.38,1.78,1.78,0,0,0,.8-.57,1.26,1.26,0,0,0,.23-.73V5a1.27,1.27,0,0,0-.23-.71,1.71,1.71,0,0,0-.8-.58,6.15,6.15,0,0,0-1.52-.39,17.5,17.5,0,0,0-2.4-.14Z"/><path class="cls-1" d="M160.6,20.72q-8.41,0-8.42-5.3v-10q0-5.29,8.42-5.29h8.29q8.42,0,8.42,5.29v10q0,5.3-8.42,5.3Zm8.17-3.08a7.56,7.56,0,0,0,3.64-.65,1.87,1.87,0,0,0,1.14-1.57v-10a1.85,1.85,0,0,0-1.14-1.58,7.71,7.71,0,0,0-3.64-.64h-8.05a7.71,7.71,0,0,0-3.64.64,1.85,1.85,0,0,0-1.14,1.58v10A1.87,1.87,0,0,0,157.08,17a7.56,7.56,0,0,0,3.64.65Z"/></g></g></svg>