<svg xmlns="http://www.w3.org/2000/svg" viewBox="0 0 296.65 95.17"><defs><style>.cls-1{fill:#9bc2e7;}.cls-2{fill:#fff;}.cls-3,.cls-7{fill:#371a45;}.cls-4{opacity:0.35;}.cls-5{opacity:0.7;}.cls-6{fill:#111a28;}.cls-7{font-size:14px;font-family:Verdana;}.cls-8{letter-spacing:0.01em;}.cls-9{letter-spacing:-0.02em;}.cls-10{letter-spacing:-0.02em;}.cls-11{letter-spacing:-0.03em;}.cls-12{letter-spacing:-0.01em;}.cls-13{letter-spacing:0em;}</style></defs><g id="Layer_2" data-name="Layer 2"><g id="Layer_1-2" data-name="Layer 1"><rect class="cls-1" width="296.65" height="95.17" rx="12"/><path class="cls-2" d="M87.59,56.59h0a.66.66,0,0,1-.7-.62L85.68,37.06a.66.66,0,0,1,.61-.7h0a6.9,6.9,0,0,1,7.33,6.45L94,49.26A6.91,6.91,0,0,1,87.59,56.59Z"/><path class="cls-3" d="M87.54,56.72a.78.78,0,0,1-.78-.74L85.55,37.07a.79.79,0,0,1,.73-.84,7,7,0,0,1,7.47,6.57l.41,6.45a7,7,0,0,1-6.57,7.47h0Zm0-.13Zm-.85-20.11-.44,0a.49.49,0,0,0-.36.17.53.53,0,0,0-.13.38L87,56a.53.53,0,0,0,.56.5,6.77,6.77,0,0,0,6.32-7.19l-.41-6.45a6.79,6.79,0,0,0-6.75-6.34Z"/><g class="cls-4"><path class="cls-3" d="M93.84,46.24l.19,3a6.91,6.91,0,0,1-6.45,7.33.66.66,0,0,1-.69-.62l-.33-5a.67.67,0,0,0,.63.36l.44,0A6.93,6.93,0,0,0,93.84,46.24Z"/></g><path class="cls-3" d="M87.54,57.81a1.88,1.88,0,0,1-1.87-1.76L84.46,37.14a1.88,1.88,0,0,1,1.75-2,8.11,8.11,0,0,1,8.63,7.58l.41,6.45a8.12,8.12,0,0,1-7.59,8.62h-.12Zm0-1.22Zm-.66-19,1.14,17.74a5.69,5.69,0,0,0,4.74-6l-.41-6.45A5.62,5.62,0,0,0,90.49,39,5.69,5.69,0,0,0,86.93,37.57Z"/><path class="cls-2" d="M23.88,40.35h0a.67.67,0,0,1,.7.62l1.21,18.91a.67.67,0,0,1-.62.7h0a6.9,6.9,0,0,1-7.32-6.45l-.42-6.45A6.92,6.92,0,0,1,23.88,40.35Z"/><path class="cls-3" d="M24.72,60.72a7,7,0,0,1-7-6.58l-.42-6.45a7,7,0,0,1,6.57-7.47h0a.8.8,0,0,1,.84.74l1.21,18.91a.8.8,0,0,1-.74.84Zm-.83-20.24a6.77,6.77,0,0,0-6.32,7.19L18,54.12a6.76,6.76,0,0,0,7.19,6.32.51.51,0,0,0,.36-.17.53.53,0,0,0,.13-.38L24.45,41a.53.53,0,0,0-.56-.5Z"/><g class="cls-4"><path class="cls-3" d="M25.45,54.63l.34,5.25a.67.67,0,0,1-.62.7A6.9,6.9,0,0,1,20,58.69a6.81,6.81,0,0,1-2.13-4.56l-.18-2.72a6.93,6.93,0,0,0,6.54,3.65L24.9,55A.64.64,0,0,0,25.45,54.63Z"/></g><path class="cls-3" d="M24.73,61.81a8.12,8.12,0,0,1-8.1-7.6l-.41-6.45a8.11,8.11,0,0,1,7.58-8.62h0a1.88,1.88,0,0,1,2,1.75L27,59.8a1.89,1.89,0,0,1-.47,1.36,1.84,1.84,0,0,1-1.29.63ZM23.4,41.63a5.69,5.69,0,0,0-4.75,6l.41,6.45a5.7,5.7,0,0,0,5.47,5.32Z"/><circle class="cls-2" cx="55.74" cy="48.47" r="32.29"/><path class="cls-3" d="M55.74,80.89h-.23a32.42,32.42,0,0,1,.22-64.84H56a32.42,32.42,0,0,1-.23,64.84Zm0-64.58a31.9,31.9,0,1,0,.24,0Z"/><g class="cls-4"><path class="cls-3" d="M87.75,44.23A32.92,32.92,0,0,1,88,48.7a32.29,32.29,0,1,1-64.57-.46c0-.51,0-1,.05-1.53a32.29,32.29,0,0,0,64.25-2.48Z"/></g><path class="cls-3" d="M55.74,82H55.5a33.78,33.78,0,1,1,.24,0Zm0-64.58a30.8,30.8,0,1,0,.23,0Z"/><path class="cls-3" d="M87.91,49.53a28.94,28.94,0,0,1-5.42,17.08C79.89,70.27,69.13,76.72,55.78,77c-12.37.21-23.68-6.3-26.34-9.92a28.91,28.91,0,0,1-5.7-17c-.13-16.72,14.18-23.76,31.9-23.91S87.78,32.81,87.91,49.53Z"/><path class="cls-3" d="M55.19,77.68c-12.54,0-23.6-6.5-26.34-10.22A29.62,29.62,0,0,1,23,50.05c-.07-8.17,3.15-14.48,9.57-18.78,5.61-3.76,13.58-5.79,23-5.86S73.1,27.23,78.77,30.9c6.48,4.2,9.81,10.46,9.87,18.62h0A29.62,29.62,0,0,1,83.08,67C80.53,70.63,69.9,77.44,55.8,77.68Zm.93-50.82h-.47c-9.43.08-31.34,2.49-31.18,23.17A28.27,28.27,0,0,0,30,66.6C32.53,70,43.31,76.23,55.2,76.23h.57c13.42-.23,23.8-6.75,26.13-10a28.28,28.28,0,0,0,5.29-16.66h0C87,29.19,65.79,26.86,56.12,26.86Z"/><g class="cls-5"><ellipse class="cls-2" cx="77.47" cy="47.34" rx="5.71" ry="4.14" transform="translate(17.61 115.6) rotate(-80.19)"/></g><g class="cls-5"><ellipse class="cls-2" cx="72.49" cy="58.7" rx="2.62" ry="2.25" transform="translate(-5.52 109.83) rotate(-72.24)"/></g><g class="cls-4"><path class="cls-6" d="M81.55,34c4,3.71,6.31,8.83,6.36,15.55a28.94,28.94,0,0,1-5.42,17.08C79.89,70.27,69.13,76.72,55.78,77A39.81,39.81,0,0,1,42.53,74.8c16.4-.63,29.5-8.55,32.73-13.09A36.74,36.74,0,0,0,82.14,40,33.1,33.1,0,0,0,81.55,34Z"/></g><path class="cls-3" d="M27,36.51,25.1,35l.89.72L25,35.08c5.67-8.48,16.74-13.41,30.38-13.52S80.11,26,86,34.15a1.21,1.21,0,0,1,0,1.53,1.23,1.23,0,0,1-1.72.14,1.3,1.3,0,0,1-.19-.22C78.62,28.12,68.19,23.89,55.44,24S32.28,28.63,27.07,36.44Zm-1-.75Z"/><g class="cls-5"><path class="cls-2" d="M31,59.93s-5.31-16.45,3.53-23.1,21.62-6.72,21.33-5.89c0,0-14.13,3.54-19.58,14.77C32.1,54.38,31,59.93,31,59.93Z"/></g><path class="cls-3" d="M119.79,38.93a3.1,3.1,0,0,1,1.35.25,2.3,2.3,0,0,1,.87.74l12.41,17.7a1.23,1.23,0,0,1,.19.66,1.1,1.1,0,0,1-.18.59,1.86,1.86,0,0,1-.48.49,2.93,2.93,0,0,1-.67.31,2.42,2.42,0,0,1-.74.11,1.92,1.92,0,0,1-.71-.12,1.34,1.34,0,0,1-.54-.44l-3.36-4.9H112.11L109,59.22a1.19,1.19,0,0,1-.53.44,2,2,0,0,1-.7.12,2.42,2.42,0,0,1-1.38-.44,1.82,1.82,0,0,1-.48-.48,1.08,1.08,0,0,1-.19-.61,1.31,1.31,0,0,1,.2-.63l11.67-17.7a2,2,0,0,1,.85-.74A3.31,3.31,0,0,1,119.79,38.93Zm-5.72,12.32h11.75l-6-8.85Z"/><path class="cls-3" d="M136.29,40.32A1.17,1.17,0,0,1,137.63,39h16a16.89,16.89,0,0,1,3.49.33,9.52,9.52,0,0,1,2.63.92,4.89,4.89,0,0,1,1.67,1.45,3.38,3.38,0,0,1,.58,1.91v3.59a3.35,3.35,0,0,1-.58,1.9,4.69,4.69,0,0,1-1.67,1.45,9.51,9.51,0,0,1-2.63.93,16.89,16.89,0,0,1-3.49.33h-3.31l-1.64,0-1.28,0-1.11-.06v.06l1,.36,1.3.46,1.86.72c.73.28,1.64.64,2.72,1.08L160,57.14a1.3,1.3,0,0,1,.91,1.28,1.11,1.11,0,0,1-.5,1,2.93,2.93,0,0,1-1.44.29l-.5,0-.61-.06a4.1,4.1,0,0,1-.61-.11,2.09,2.09,0,0,1-.53-.21l-16.64-7.2v6.26a1.1,1.1,0,0,1-.49,1.08,3.09,3.09,0,0,1-1.42.26,3,3,0,0,1-1.39-.26,1.1,1.1,0,0,1-.49-1.08Zm3.79,1.76V48.8h13.2a17.66,17.66,0,0,0,2.41-.14,6.27,6.27,0,0,0,1.52-.39,1.83,1.83,0,0,0,.8-.57,1.2,1.2,0,0,0,.22-.72V43.91a1.29,1.29,0,0,0-.22-.72,1.84,1.84,0,0,0-.8-.58,6.32,6.32,0,0,0-1.52-.38,16,16,0,0,0-2.41-.15Z"/><path class="cls-3" d="M176.16,42.08V58.42a1.11,1.11,0,0,1-.48,1.08,3.17,3.17,0,0,1-1.43.26,3,3,0,0,1-1.39-.26,1.11,1.11,0,0,1-.49-1.08V42.08h-8.56a.94.94,0,0,1-.9-.38,2.48,2.48,0,0,1-.21-1.15,2.45,2.45,0,0,1,.21-1.15.94.94,0,0,1,.9-.39h20.94a.93.93,0,0,1,.9.39,2.45,2.45,0,0,1,.21,1.15,2.48,2.48,0,0,1-.21,1.15c-.14.26-.44.38-.9.38Z"/><path class="cls-3" d="M195.6,50.71q-8.43,0-8.43-5.3V44.3q0-5.28,8.43-5.29h2.84a.94.94,0,0,1,.9.39,2.45,2.45,0,0,1,.21,1.15,2.48,2.48,0,0,1-.21,1.15.94.94,0,0,1-.9.38h-2.93a7.21,7.21,0,0,0-3.54.64,1.85,1.85,0,0,0-1,1.58v1.11A1.86,1.86,0,0,0,192,47a7,7,0,0,0,3.54.65h6.71q8.43,0,8.43,5.3v1.42q0,5.3-8.43,5.29H188.28a.94.94,0,0,1-.89-.38,3.14,3.14,0,0,1,0-2.31.94.94,0,0,1,.89-.38h14a7.09,7.09,0,0,0,3.54-.64,1.84,1.84,0,0,0,1-1.58V52.93a1.86,1.86,0,0,0-1-1.57,7,7,0,0,0-3.54-.65Z"/><path class="cls-3" d="M218.7,42.08V58.42a1.11,1.11,0,0,1-.48,1.08,3.17,3.17,0,0,1-1.43.26,3,3,0,0,1-1.39-.26,1.11,1.11,0,0,1-.48-1.08V42.08h-8.57a1,1,0,0,1-.9-.38,2.48,2.48,0,0,1-.21-1.15,2.45,2.45,0,0,1,.21-1.15,1,1,0,0,1,.9-.39h21a.92.92,0,0,1,.89.39,2.45,2.45,0,0,1,.21,1.15,2.48,2.48,0,0,1-.21,1.15c-.14.26-.44.38-.89.38Z"/><path class="cls-3" d="M230.08,40.32A1.17,1.17,0,0,1,231.42,39h16a16.83,16.83,0,0,1,3.49.33,9.52,9.52,0,0,1,2.63.92,4.89,4.89,0,0,1,1.67,1.45,3.38,3.38,0,0,1,.58,1.91v3.59a3.35,3.35,0,0,1-.58,1.9,4.69,4.69,0,0,1-1.67,1.45,9.51,9.51,0,0,1-2.63.93,16.83,16.83,0,0,1-3.49.33H244.1l-1.64,0-1.28,0-1.11-.06v.06l1,.36,1.3.46,1.86.72c.73.28,1.64.64,2.72,1.08l6.86,2.76a1.3,1.3,0,0,1,.91,1.28,1.11,1.11,0,0,1-.5,1,2.93,2.93,0,0,1-1.44.29l-.49,0-.62-.06a4.1,4.1,0,0,1-.61-.11,1.89,1.89,0,0,1-.52-.21l-16.65-7.2v6.26a1.1,1.1,0,0,1-.49,1.08,3.09,3.09,0,0,1-1.42.26,3,3,0,0,1-1.39-.26,1.1,1.1,0,0,1-.49-1.08Zm3.79,1.76V48.8h13.2a17.66,17.66,0,0,0,2.41-.14,6.27,6.27,0,0,0,1.52-.39,1.83,1.83,0,0,0,.8-.57A1.2,1.2,0,0,0,252,47V43.91a1.29,1.29,0,0,0-.22-.72,1.84,1.84,0,0,0-.8-.58,6.32,6.32,0,0,0-1.52-.38,16,16,0,0,0-2.41-.15Z"/><path class="cls-3" d="M266.28,59.64q-8.43,0-8.42-5.29V44.3q0-5.28,8.42-5.29h8.28Q283,39,283,44.3V54.35q0,5.3-8.42,5.29Zm8.17-3.07a7.57,7.57,0,0,0,3.64-.66,1.84,1.84,0,0,0,1.14-1.56V44.3a1.86,1.86,0,0,0-1.14-1.58,7.86,7.86,0,0,0-3.64-.64h-8.06a7.86,7.86,0,0,0-3.64.64,1.86,1.86,0,0,0-1.14,1.58V54.35a1.84,1.84,0,0,0,1.14,1.56,7.57,7.57,0,0,0,3.64.66Z"/><text class="cls-7" transform="translate(105.67 30.87)">This N<tspan class="cls-8" x="44.02" y="0">F</tspan><tspan x="52.27" y="0">T is </tspan><tspan class="cls-9" x="81.87" y="0">A</tspan><tspan class="cls-10" x="91.1" y="0">v</tspan><tspan x="99.11" y="0">ailable at</tspan></text><text class="cls-7" transform="translate(105.67 77.68)">ww<tspan class="cls-11" x="22.91" y="0">w</tspan><tspan x="33.89" y="0">.artstr</tspan><tspan class="cls-12" x="77.67" y="0">o</tspan><tspan class="cls-13" x="86.03" y="0">.io</tspan></text></g></g></svg>